<svg id="Layer_1" data-name="Layer 1" xmlns="http://www.w3.org/2000/svg" viewBox="0 0 373.45 85.04"><title>logo-primary-horizWolseley_logo_horz_rgb</title><rect x="1.05" y="1.05" width="371.35" height="82.93" fill="#cd2e31"/><path d="M71.78,27.06,66,45.32,60.6,27.06H52l1.77,5.8-4.81,12.6-5.38-18.4h-9L44.39,58h5.38l6.51-17.76L62.08,58h5.59l10-30.92ZM85.86,42.41c0-6.86,2.69-11.17,7-11.17s7.22,4.31,7.22,11.17S97.32,53.8,92.86,53.8s-7-4.46-7-11.39M112,58h18l1.77-5.24H120.46V27.06H112Zm72.67,0h18l1.77-5.24H193.13V27.06h-8.42Zm54.76-30.92h-9.2l9.63,18.53V58h8.42V45l9.2-18h-6l-6.15,12.31ZM148.83,49.91c0,2.26-2.05,3.68-5.87,3.68a17.8,17.8,0,0,1-7.5-2l-1.63,4.88A19.3,19.3,0,0,0,143,58.68c8.77,0,13.44-4.24,13.44-10.61,0-6.72-5.23-8.35-10.05-9.83-2.83-.85-4.95-1.63-4.95-3.54s1.84-3.25,5.38-3.25a17,17,0,0,1,7.64,2V28.19a16.12,16.12,0,0,0-7.85-1.84c-8.42,0-12.74,4.53-12.74,10.12,0,6.58,5.87,8.35,10.12,9.62,2.69.78,4.88,1.49,4.88,3.82m11,8.07h19.32L181,52.74H168.29V44.6h10.33V39.37H168.29V32.3h11.6V27.06h-20Zm47.9,0h19.32l1.77-5.24H216.19V44.6h10.33V39.37H216.19V32.3H227.8V27.06h-20ZM77.44,42.48c0,9.48,6.58,16.2,15.49,16.2s15.57-7,15.57-16.2c0-9.48-6.65-16.13-15.57-16.13s-15.49,7-15.49,16.13M373.45,0H0V85H373.45ZM324.18,17.27,311.6,50.2,297.55,2.11h22Zm6.66,19.24L346,82.93H313.82Zm11.28-34.4h29.23L356.18,49.83Zm-340,0H273.87l25.9,80.82H2.11ZM371.35,82.93H360.62l10.73-33Z" fill="#fff"/></svg>